<svg xmlns="http://www.w3.org/2000/svg" viewBox="0 0 800 300" width="800" height="300">
  <defs>
    <linearGradient id="gt21" x1="0%" y1="0%" x2="100%" y2="0%">
      <stop offset="0%" stop-color="#7EC8E3"/>
      <stop offset="100%" stop-color="#2B6CB0"/>
    </linearGradient>
  </defs>
  <rect width="800" height="300" fill="#FFFFFF"/>
  <!-- ジオメトリックカット — 直線的に構成された文字 -->
  <g transform="translate(400, 150)">
    <!-- U -->
    <g transform="translate(-310, 0)">
      <path d="M0,-45 L0,15 Q0,45 25,45 Q50,45 50,-15 L50,-45" fill="none" stroke="#1A365D" stroke-width="8" stroke-linecap="square"/>
    </g>
    <!-- M -->
    <g transform="translate(-230, 0)">
      <path d="M0,45 L0,-45 L30,15 L60,-45 L60,45" fill="none" stroke="#1A365D" stroke-width="8" stroke-linecap="square" stroke-linejoin="miter"/>
    </g>
    <!-- I — 水色アクセント -->
    <g transform="translate(-140, 0)">
      <line x1="0" y1="-45" x2="0" y2="45" stroke="url(#gt21)" stroke-width="10" stroke-linecap="square"/>
      <line x1="-12" y1="-45" x2="12" y2="-45" stroke="url(#gt21)" stroke-width="6" stroke-linecap="square"/>
      <line x1="-12" y1="45" x2="12" y2="45" stroke="url(#gt21)" stroke-width="6" stroke-linecap="square"/>
    </g>
    <!-- D -->
    <g transform="translate(-100, 0)">
      <path d="M0,-45 L0,45 L25,45 Q60,45 60,0 Q60,-45 25,-45 Z" fill="none" stroke="#1A365D" stroke-width="8" stroke-linejoin="miter"/>
    </g>
    <!-- A -->
    <g transform="translate(-5, 0)">
      <path d="M0,45 L25,-45 L50,45 M10,15 L40,15" fill="none" stroke="#1A365D" stroke-width="8" stroke-linecap="square" stroke-linejoin="miter"/>
    </g>
    <!-- S -->
    <g transform="translate(80, 0)">
      <path d="M45,-35 Q45,-45 25,-45 Q0,-45 0,-30 Q0,-15 25,-10 Q50,-5 50,15 Q50,45 25,45 Q5,45 0,35" fill="none" stroke="#1A365D" stroke-width="8" stroke-linecap="square"/>
    </g>
  </g>
</svg>
